# Exported by ZModeler 2.2.6 (Build 981) with WavefrontOBJ filter (Build 45)
# 

mtllib spinta.mtl

v 1.26728 0.999113 -1.26436
v 1.26728 0.736054 -0.77437
v 1.26728 0.736054 -1.26436
v 1.26728 0.999113 -0.77437
v 1.26728 0.680892 -1.26436
v 1.26728 0.417833 -0.77437
v 1.26728 0.417833 -1.26436
v 1.26728 0.680892 -0.77437
v 1.26728 0.353955 -1.26436
v 1.26728 0.0908963 -0.77437
v 1.26728 0.0908963 -1.26436
v 1.26728 0.353955 -0.77437
v 1.22534 0.876642 -0.749114
v 1.18262 0.860471 -0.810928
v 1.18262 0.912802 -0.749114
v 1.20902 0.818134 -0.749114
v 1.22534 0.556469 -0.749114
v 1.18262 0.540298 -0.810928
v 1.18262 0.592629 -0.749114
v 1.20902 0.497961 -0.749114
v 1.22534 0.24014 -0.749114
v 1.18262 0.223969 -0.810928
v 1.18262 0.2763 -0.749114
v 1.20902 0.181632 -0.749114
v 1.15623 0.818134 -0.749114
v 1.31657 1.15004 -1.49836
v 1.31657 0.00343901 -0.807274
v 1.31657 0.00343901 -1.49836
v 1.31657 1.05709 -0.807274
v 1.31657 1.15004 -0.807274
v 1.31657 1.11207 -0.755554
v 1.31657 1.05709 -0.755554
v 1.13991 0.876642 -0.749114
v 1.13991 0.556469 -0.749114
v 1.15623 0.497961 -0.749114
v 1.13991 0.24014 -0.749114
v 1.15623 0.181632 -0.749114
v 1.18262 0.860471 -0.716484
v 1.18262 0.540298 -0.716484
v 1.18262 0.223969 -0.716484
v -0.316254 0.00343901 -0.807274
v -0.316254 1.05709 -0.807274
v -0.316254 1.05709 -0.755554
v -0.271984 0.999113 -0.77437
v -0.271984 0.999113 -1.26436
v -0.271984 0.736054 -0.77437
v -0.271984 0.736054 -1.26436
v -0.271984 0.680892 -0.77437
v -0.271984 0.680892 -1.26436
v -0.271984 0.417833 -0.77437
v -0.271984 0.417833 -1.26436
v -0.271984 0.353955 -0.77437
v -0.271984 0.353955 -1.26436
v -0.271984 0.0908963 -0.77437
v -0.139752 0.876642 -0.749114
v -0.182465 0.860471 -0.810928
v -0.182465 0.912802 -0.749114
v -0.156067 0.818134 -0.749114
v -0.139752 0.556469 -0.749114
v -0.182465 0.540298 -0.810928
v -0.182465 0.592629 -0.749114
v -0.156067 0.497961 -0.749114
v -0.139752 0.24014 -0.749114
v -0.182465 0.223969 -0.810928
v -0.182465 0.2763 -0.749114
v -0.156067 0.181632 -0.749114
v -0.208863 0.818134 -0.749114
v -0.316254 1.15004 -0.807274
v -0.316254 1.15004 -1.49836
v 1.31657 0.00343895 -1.49836
v -0.316254 0.00343895 -1.49836
v -0.316254 1.11207 -0.755554
v -0.316254 0.00343901 -1.49836
v -0.225178 0.876642 -0.749114
v -0.225178 0.556469 -0.749114
v -0.208863 0.497961 -0.749114
v -0.225178 0.24014 -0.749114
v -0.208863 0.181632 -0.749114
v -0.182465 0.860471 -0.716484
v -0.182465 0.540298 -0.716484
v -0.182465 0.223969 -0.716484
v -0.271984 0.0908963 -1.26436


vn 1 0 0
vn 0.766775 0.244109 -0.59369
vn 0.778803 0.206733 -0.592223
vn 0.542703 0.64105 -0.542704
vn 0.827685 -0.230797 -0.511537
vn 0.766775 0.244108 -0.59369
vn 0.778803 0.206733 -0.592223
vn 0.542704 0.64105 -0.542704
vn 0.827685 -0.230797 -0.511537
vn -0 -0.825041 -0.565072
vn -0.778803 0.206732 -0.592223
vn -0.766775 0.244108 -0.59369
vn -0.542703 0.64105 -0.542704
vn -0.827685 -0.230799 -0.511537
vn -0.778803 0.206732 -0.592223
vn -0.766775 0.244108 -0.59369
vn -0.542704 0.64105 -0.542704
vn -0.827685 -0.230799 -0.511537
vn -2.25002e-007 -0.000289129 1
vn -7.91851e-009 0.529097 0.848562
vn -0.553938 0.177968 0.813314
vn 0.553938 0.177968 0.813314
vn 0.322701 -0.443311 0.836265
vn -0.322701 -0.443312 0.836265
vn -0 -0.825041 -0.565073
vn -2.50521e-007 -0.000288836 1
vn -3.70169e-011 0.529096 0.848562
vn -0.553938 0.177968 0.813314
vn 0.553938 0.177968 0.813314
vn 0.322701 -0.443311 0.836265
vn -0.3227 -0.443312 0.836265
vn -0 -5.65695e-008 1
vn -0 -1 0
vn -0 1 0
vn -0 1 1.21643e-007
vn -0 -4.53167e-007 1
vn -0 -4.53166e-007 1
vn -0 -4.53167e-007 1
vn -0 -4.53167e-007 1
vn -0 -4.53167e-007 1
vn 0.766775 0.244109 -0.593689
vn 0.778803 0.206733 -0.592222
vn 0.542704 0.64105 -0.542704
vn 0.827685 -0.230797 -0.511537
vn 0.766775 0.244108 -0.593689
vn 0.778803 0.206733 -0.592222
vn 0.542704 0.64105 -0.542704
vn 0.827685 -0.230797 -0.511537
vn -0 0.707107 -0.707107
vn -0 0.950277 0.311405
vn -0 0.950277 0.311405
vn -0 0.707107 -0.707107
vn -0 0 -1
vn -0 0.451751 0.892144
vn -0 0 1
vn -0 0.451751 0.892144
vn -1 0 0
vn -0.778803 0.206733 -0.592223
vn -0.766775 0.244108 -0.59369
vn -0.827685 -0.230798 -0.511537
vn -0.778803 0.206732 -0.592223
vn -0.766775 0.244108 -0.59369
vn -0.827685 -0.230798 -0.511537
vn 1.97013e-007 -0.000289082 1
vn 1.30249e-007 0.529097 0.848562
vn -0.553938 0.177968 0.813314
vn 0.553938 0.177968 0.813314
vn 0.322701 -0.443312 0.836265
vn -0.322701 -0.443312 0.836265
vn 2.24917e-007 -0.000288788 1
vn 1.3813e-007 0.529096 0.848562
vn -0.553938 0.177968 0.813314
vn 0.553938 0.177968 0.813314
vn 0.322701 -0.443311 0.836265
vn -0.3227 -0.443312 0.836265


vt 0.700526 0.868
vt 0.0744605 0.638805
vt 0.700526 0.638805
vt 0.0744605 0.868
vt 0.700526 0.590743
vt 0.0744605 0.361548
vt 0.700526 0.361548
vt 0.0744605 0.590743
vt 0.700526 0.305893
vt 0.0744605 0.0766984
vt 0.700526 0.0766984
vt 0.0744605 0.305893
vt 0.0644569 0.761295
vt 0.0944001 0.747205
vt 0.0944001 0.7928
vt 0.0758942 0.710318
vt 0.0644569 0.482338
vt 0.0944001 0.468248
vt 0.0944001 0.513843
vt 0.0758942 0.431361
vt 0.0644569 0.20673
vt 0.0944001 0.192641
vt 0.0944001 0.238235
vt 0.0758942 0.155754
vt 0.112906 0.710318
vt 0.9995 0.999501
vt 0.116501 0.000499487
vt 0.9995 0.000499487
vt 0.116501 0.918516
vt 0.116501 0.9995
vt 0.0504191 0.966414
vt 0.0504191 0.918516
vt 0.124343 0.761295
vt 0.124343 0.482338
vt 0.112906 0.431361
vt 0.124343 0.20673
vt 0.112906 0.155754
vt 0.9056 0.747205
vt 0.9056 0.7928
vt 0.875657 0.761295
vt 0.935543 0.761295
vt 0.924106 0.710318
vt 0.887094 0.710318
vt 0.9056 0.468248
vt 0.9056 0.513843
vt 0.875657 0.482338
vt 0.935543 0.482338
vt 0.924106 0.431361
vt 0.887094 0.431361
vt 0.9056 0.192641
vt 0.9056 0.238235
vt 0.875657 0.20673
vt 0.935543 0.20673
vt 0.924106 0.155754
vt 0.887094 0.155754
vt 0.9995 0.918516
vt 0.000499547 0.000499487
vt 0.9995 0.000499487
vt 0.000499547 0.918516
vt 0.000499696 0.0504191
vt 0.9995 0.116502
vt 0.000499696 0.116501
vt 0.9995 0.0504196
vt 0.964943 0.700526
vt 0.031534 0.0744609
vt 0.964943 0.0744605
vt 0.031534 0.700526
vt 0.968466 0.074461
vt 0.0350569 0.700526
vt 0.035057 0.0744605
vt 0.968466 0.700526
vt 0.964943 0.868
vt 0.031534 0.638805
vt 0.964943 0.638805
vt 0.031534 0.868
vt 0.964943 0.590743
vt 0.031534 0.361548
vt 0.964943 0.361548
vt 0.031534 0.590743
vt 0.031534 0.0766984
vt 0.964943 0.305893
vt 0.031534 0.305893
vt 0.964943 0.0766984
vt 0.875767 0.761295
vt 0.90571 0.747205
vt 0.90571 0.7928
vt 0.887204 0.710318
vt 0.875767 0.482338
vt 0.90571 0.468248
vt 0.90571 0.513843
vt 0.887204 0.431361
vt 0.875767 0.20673
vt 0.90571 0.192641
vt 0.90571 0.238235
vt 0.887204 0.155754
vt 0.924216 0.710318
vt 0.9995 0.9995
vt 0.000499547 0.116502
vt 0.9995 0.116501
vt 0.000499666 0.9995
vt 0.9995 0.966414
vt 0.000499547 0.966414
vt 0.9995 0.9995
vt 0.000499547 0.9995
vt 0.883498 0.9995
vt 0.94958 0.918516
vt 0.94958 0.966414
vt 0.883498 0.918516
vt 0.000499576 0.999501
vt 0.000499517 0.000499487
vt 0.883498 0.000499487
vt 0.935653 0.761295
vt 0.935653 0.482338
vt 0.924216 0.431361
vt 0.935653 0.20673
vt 0.924216 0.155754
vt 0.0942903 0.747205
vt 0.0942903 0.7928
vt 0.0643471 0.761295
vt 0.124234 0.761295
vt 0.112796 0.710318
vt 0.0757844 0.710318
vt 0.0942903 0.468248
vt 0.0942903 0.513843
vt 0.0643471 0.482338
vt 0.124234 0.482338
vt 0.112796 0.431361
vt 0.0757844 0.431361
vt 0.0942903 0.192641
vt 0.0942903 0.238235
vt 0.0643471 0.20673
vt 0.124234 0.20673
vt 0.112796 0.155754
vt 0.0757844 0.155754
vt 0.299474 0.638805
vt 0.925539 0.868
vt 0.299474 0.868
vt 0.925539 0.638805
vt 0.299474 0.361548
vt 0.925539 0.590743
vt 0.299474 0.590743
vt 0.925539 0.361548
vt 0.299474 0.0766984
vt 0.925539 0.305893
vt 0.299474 0.305893
vt 0.925539 0.0766984


usemtl CJ_WOOD1

f 1/1/1 2/2/1 3/3/1
f 4/4/1 2/2/1 1/1/1
f 5/5/1 6/6/1 7/7/1
f 8/8/1 6/6/1 5/5/1
f 9/9/1 10/10/1 11/11/1
f 12/12/1 10/10/1 9/9/1
f 13/13/2 14/14/3 15/15/4
f 16/16/5 14/14/3 13/13/2
f 17/17/2 18/18/3 19/19/4
f 20/20/5 18/18/3 17/17/2
f 21/21/6 22/22/7 23/23/8
f 24/24/9 22/22/7 21/21/6
f 16/16/10 25/25/10 14/14/10
f 26/26/1 27/27/1 28/28/1
f 26/26/1 29/29/1 27/27/1
f 30/30/1 29/29/1 26/26/1
f 31/31/1 29/29/1 30/30/1
f 31/31/1 32/32/1 29/29/1
f 14/14/11 33/33/12 15/15/13
f 14/14/11 25/25/14 33/33/12
f 18/18/11 34/34/12 19/19/13
f 18/18/11 35/35/14 34/34/12
f 22/22/15 36/36/16 23/23/17
f 22/22/15 37/37/18 36/36/16
f 38/38/19 15/39/20 33/40/21
f 38/38/19 13/41/22 15/39/20
f 16/42/23 13/41/22 38/38/19
f 38/38/19 25/43/24 16/42/23
f 33/40/21 25/43/24 38/38/19
f 20/20/10 35/35/10 18/18/10
f 39/44/19 19/45/20 34/46/21
f 39/44/19 17/47/22 19/45/20
f 20/48/23 17/47/22 39/44/19
f 39/44/19 35/49/24 20/48/23
f 34/46/21 35/49/24 39/44/19
f 24/24/25 37/37/25 22/22/25
f 40/50/26 23/51/27 36/52/28
f 40/50/26 21/53/29 23/51/27
f 24/54/30 21/53/29 40/50/26
f 40/50/26 37/55/31 24/54/30
f 36/52/28 37/55/31 40/50/26
f 29/56/32 41/57/32 27/58/32
f 42/59/32 41/57/32 29/56/32
f 32/60/33 42/61/33 29/62/33
f 43/63/33 42/61/33 32/60/33
f 1/64/34 44/65/34 4/66/34
f 45/67/34 44/65/34 1/64/34
f 46/68/33 3/69/33 2/70/33
f 47/71/33 3/69/33 46/68/33
f 5/64/34 48/65/34 8/66/34
f 49/67/34 48/65/34 5/64/34
f 50/68/33 7/69/33 6/70/33
f 51/71/33 7/69/33 50/68/33
f 9/64/35 52/65/35 12/66/35
f 53/67/35 52/65/35 9/64/35
f 4/72/36 46/73/36 2/74/37
f 44/75/37 46/73/36 4/72/36
f 8/76/38 50/77/39 6/78/38
f 48/79/38 50/77/39 8/76/38
f 54/80/40 12/81/36 52/82/40
f 10/83/40 12/81/36 54/80/40
f 55/84/41 56/85/42 57/86/43
f 58/87/44 56/85/42 55/84/41
f 59/88/41 60/89/42 61/90/43
f 62/91/44 60/89/42 59/88/41
f 63/92/45 64/93/46 65/94/47
f 66/95/48 64/93/46 63/92/45
f 58/87/10 67/96/10 56/85/10
f 26/97/49 68/98/50 30/99/51
f 26/97/49 69/100/52 68/98/50
f 70/97/53 69/100/52 26/97/49
f 70/97/53 71/100/53 69/100/52
f 31/101/54 43/59/55 32/56/55
f 31/101/54 72/102/56 43/59/55
f 30/103/51 72/102/56 31/101/54
f 30/103/51 68/104/50 72/102/56
f 68/105/57 43/106/57 72/107/57
f 68/105/57 42/108/57 43/106/57
f 69/109/57 42/108/57 68/105/57
f 73/110/57 42/108/57 69/109/57
f 73/110/57 41/111/57 42/108/57
f 56/85/58 74/112/59 57/86/13
f 56/85/58 67/96/60 74/112/59
f 60/89/58 75/113/59 61/90/13
f 60/89/58 76/114/60 75/113/59
f 64/93/61 77/115/62 65/94/17
f 64/93/61 78/116/63 77/115/62
f 79/117/64 57/118/65 74/119/66
f 79/117/64 55/120/67 57/118/65
f 58/121/68 55/120/67 79/117/64
f 79/117/64 67/122/69 58/121/68
f 74/119/66 67/122/69 79/117/64
f 62/91/10 76/114/10 60/89/10
f 80/123/64 61/124/65 75/125/66
f 80/123/64 59/126/67 61/124/65
f 62/127/68 59/126/67 80/123/64
f 80/123/64 76/128/69 62/127/68
f 75/125/66 76/128/69 80/123/64
f 66/95/25 78/116/25 64/93/25
f 81/129/70 65/130/71 77/131/72
f 81/129/70 63/132/73 65/130/71
f 66/133/74 63/132/73 81/129/70
f 81/129/70 78/134/75 66/133/74
f 77/131/72 78/134/75 81/129/70
f 47/135/57 44/136/57 45/137/57
f 46/138/57 44/136/57 47/135/57
f 51/139/57 48/140/57 49/141/57
f 50/142/57 48/140/57 51/139/57
f 82/143/57 52/144/57 53/145/57
f 54/146/57 52/144/57 82/143/57
