# Blender v2.79 (sub 0) OBJ File: ''
# www.blender.org
mtllib tiltas.mtl
o Mesh23_Component1_Model
v 7.983020 18.479523 -145.479996
v 7.075760 18.478750 -320.987427
v 6.991130 18.478651 -321.282013
v 6.991130 19.978651 -321.282013
v 7.983020 19.979523 -145.479996
v 5.983160 14.679523 -145.423996
v 4.991270 14.678653 -321.226013
v -22.998301 18.485552 -320.444000
v -22.913700 18.485649 -320.149414
v -22.006399 19.986423 -144.641998
v -22.998301 19.985552 -320.444000
v -22.006399 18.486423 -144.641998
v -20.999701 14.685553 -320.500000
v -20.007799 14.686424 -144.697998
v -22.079800 18.486324 -157.641998
v 7.920900 18.479425 -157.811005
v 6.920910 28.479425 -157.806000
v -21.079800 28.479425 -157.647995
v -18.570700 14.685634 -205.205994
v -18.643200 14.685634 -207.802994
v -18.643200 -5.314356 -207.802994
v -18.570700 -5.314357 -205.205994
v -18.316799 14.685825 -160.207001
v -18.389400 14.685826 -162.804001
v -18.389400 -5.314133 -162.804001
v -18.316799 -5.314134 -160.207001
v 3.526730 -5.314705 -303.698029
v 3.454190 -5.314705 -306.295013
v 3.454190 14.685345 -306.295013
v 3.526730 14.685345 -303.698029
v -22.418301 18.486036 -217.641006
v 7.582380 18.479136 -217.809998
v 6.582390 28.479136 -217.804993
v -21.418301 28.479136 -217.647003
v 4.175560 -5.314134 -160.835007
v 4.103020 -5.314133 -163.432007
v 4.103020 14.685826 -163.432007
v 4.175560 14.685825 -160.835007
v 3.921670 -5.314357 -205.834000
v 3.849130 -5.314356 -208.431000
v 3.849130 14.685635 -208.431000
v 3.921670 14.685634 -205.834000
v -22.926100 18.485649 -307.640015
v 7.074590 18.478750 -307.808990
v 6.074610 28.478750 -307.803009
v -21.926100 28.478750 -307.644989
v -18.796400 14.685440 -273.070007
v -18.868900 14.685440 -275.667023
v -18.868900 -5.314550 -275.667023
v -18.796400 -5.314550 -273.070007
v -22.756800 18.485746 -277.640015
v 7.243850 18.478846 -277.808990
v 6.243870 28.478846 -277.803986
v -21.756800 28.478846 -277.645996
v 3.695990 -5.314550 -273.697998
v 3.623450 -5.314550 -276.296021
v 3.623450 14.685440 -276.296021
v 3.695990 14.685440 -273.697998
v -22.587601 18.485941 -247.641006
v 7.413110 18.479040 -247.809998
v 6.413130 28.479040 -247.804001
v -21.587601 28.479040 -247.645996
v -22.249001 18.486231 -187.641998
v 7.751640 18.479330 -187.811005
v 6.751650 28.479330 -187.804993
v -21.249001 28.479330 -187.647003
v -18.965599 14.685345 -303.070007
v -19.038200 14.685345 -305.667023
v -19.038200 -5.314705 -305.667023
v -18.965599 -5.314705 -303.070007
vt 3.000000 -89.000000
vt 3.000220 -75.662201
vt 2.000130 -75.662201
vt 1.999860 -89.000000
vt -156.000000 12.000000
vt -75.508202 12.000000
vt -68.000000 12.000000
vt -68.000999 13.000000
vt -156.000000 13.000000
vt -68.000298 23.000000
vt -156.000000 23.000000
vt -156.000000 22.000000
vt -148.492004 22.000000
vt -68.000000 22.000000
vt 0.000000 0.000688
vt 1.000000 -0.000000
vt 0.966668 1.000000
vt 0.033332 1.000000
vt 0.000000 0.000688
vt 1.000000 -0.000000
vt 0.966668 1.000000
vt 0.033332 1.000000
vt 0.000000 0.000688
vt 1.000000 -0.000000
vt 0.966668 1.000000
vt 0.033332 1.000000
vt 0.000000 0.000688
vt 1.000000 -0.000000
vt 0.966668 1.000000
vt 0.033332 1.000000
vt 0.000000 0.000688
vt 1.000000 -0.000000
vt 0.966668 1.000000
vt 0.033332 1.000000
vt 0.000000 0.000688
vt 1.000000 -0.000000
vt 0.966668 1.000000
vt 0.033332 1.000000
vt 0.000000 8.000000
vt 1.000000 8.000000
vt 1.000000 2.444440
vt 0.000000 2.444440
vt 0.000000 8.000000
vt 1.000000 8.000000
vt 1.000000 2.444440
vt 0.000000 2.444440
vt 0.000000 2.444440
vt 1.000000 2.444440
vt 1.000000 8.000000
vt 0.000000 8.000000
vt 0.000000 2.444440
vt 1.000000 2.444440
vt 1.000000 8.000000
vt 0.000000 8.000000
vt 0.000000 2.444440
vt 1.000000 2.444440
vt 1.000000 8.000000
vt 0.000000 8.000000
vt 0.000000 8.000000
vt 1.000000 8.000000
vt 1.000000 2.444440
vt 0.000000 2.444440
vt 0.000000 2.444440
vt 1.000000 2.444440
vt 1.000000 8.000000
vt 0.000000 8.000000
vt 0.000000 8.000000
vt 1.000000 8.000000
vt 1.000000 2.444440
vt 0.000000 2.444440
vt 143.000000 -6.000000
vt 230.901993 -6.000000
vt 230.925003 -4.997710
vt 223.425003 -4.997710
vt 143.022003 -4.997710
vt -189.977997 2.003970
vt -270.687012 2.007500
vt -278.244995 2.007830
vt -278.263000 1.000000
vt -190.000000 1.000000
vn 0.0002 1.0000 -0.0000
vn 0.9996 0.0276 -0.0056
vn 0.9730 -0.2306 -0.0055
vn 0.9708 -0.2399 -0.0055
vn -0.9996 -0.0276 0.0056
vn -0.9706 -0.2406 0.0055
vn -0.9685 -0.2490 0.0055
vn 0.0056 0.0000 1.0000
vn 0.0056 -0.0001 1.0000
vn -0.9996 0.0000 0.0279
vn 0.9996 0.0000 -0.0279
vn 0.8809 -0.4733 -0.0050
vn -0.8890 -0.4579 0.0050
usemtl Road
s 1
f 1/1/1 2/2/1 9/3/1 12/4/1
usemtl Fences
f 1/5/2 2/6/3 3/7/4 4/8/2 5/9/2
f 10/10/5 11/11/5 8/12/6 9/13/7 12/14/5
usemtl Lights
f 15/15/8 16/16/8 17/17/8 18/18/8
f 31/19/8 32/20/8 33/21/8 34/22/8
f 43/23/9 44/24/9 45/25/9 46/26/9
f 51/27/8 52/28/8 53/29/8 54/30/8
f 59/31/9 60/32/9 61/33/9 62/34/9
f 63/35/9 64/36/9 65/37/9 66/38/9
usemtl Pier
f 19/39/10 20/40/10 21/41/10 22/42/10
f 23/43/10 24/44/10 25/45/10 26/46/10
f 27/47/11 28/48/11 29/49/11 30/50/11
f 35/51/11 36/52/11 37/53/11 38/54/11
f 39/55/11 40/56/11 41/57/11 42/58/11
f 47/59/10 48/60/10 49/61/10 50/62/10
f 55/63/11 56/64/11 57/65/11 58/66/11
f 67/67/10 68/68/10 69/69/10 70/70/10
usemtl Pier_Side.jpg
f 6/71/12 7/72/12 3/73/4 2/74/3 1/75/12
f 12/76/13 9/77/7 8/78/6 13/79/13 14/80/13
