# Blender v2.79 (sub 0) OBJ File: ''
# www.blender.org
mtllib washing.mtl
o Mesh3_skp149C1_Component_4_1_skp4048_1_Component_3_1_Compon.000
v 3.024099 1.866471 -7.923421
v 3.046960 1.253753 -7.929987
v -3.185909 1.125999 -7.796385
v -3.168797 2.000071 -7.812636
v -3.100550 1.352633 7.009836
v 3.156240 1.352633 6.977337
v 3.145936 1.922266 6.969376
v -3.107744 2.055867 6.983283
v -3.101902 -2.018224 -2.714680
v -3.101900 1.286887 -2.714678
v -3.101500 1.286887 -2.886675
v -3.101502 -2.018224 -2.886681
v 3.136919 -2.018224 -2.699979
v 3.136920 1.286887 -2.699979
v 3.137319 -2.018224 -2.872076
v 3.137321 1.286887 -2.872075
v 3.053228 -1.935550 -7.637587
v 3.053230 1.253753 -7.637585
v -3.179642 1.125999 -7.503987
v -3.179644 -1.935549 -7.503989
v 3.046958 -1.935550 -7.929988
v -3.185911 -1.935549 -7.796387
v 3.156238 -1.932871 6.973960
v 3.156240 1.352633 6.973963
v -3.100550 1.352633 7.006464
v -3.100552 -1.932871 7.006460
v 3.155538 -1.932871 6.838361
v 3.155540 1.352633 6.838364
v -3.101261 -1.932871 6.870960
v -3.101259 1.352633 6.870960
v 3.156238 -1.932870 2.113962
v 3.156240 1.352635 2.113964
v -3.100550 1.352635 2.146464
v -3.100552 -1.932869 2.146459
v 3.155538 -1.932870 1.978361
v 3.155540 1.352635 1.978363
v -3.101261 -1.932869 2.010961
v -3.101259 1.352635 2.010962
vt 0.152850 3.567980
vt 0.159704 3.248200
vt 6.976050 3.394310
vt 6.969190 3.714080
vt 19.985600 26.246901
vt 17.434601 24.077499
vt 21.851500 18.883699
vt 24.402399 21.053101
vt -24.406900 21.056900
vt -21.855900 18.887501
vt -17.439100 24.081301
vt -19.990000 26.250601
vt -0.158395 3.309230
vt -0.151541 3.629000
vt -6.967890 3.775110
vt -6.974740 3.455340
vt 34.416100 -0.069249
vt 34.416100 3.545260
vt 34.228001 3.545260
vt 34.228001 -0.069249
vt 0.082315 -0.069249
vt 0.082315 3.545260
vt -6.740560 3.545260
vt -6.740560 -0.069249
vt -34.228100 -0.069249
vt -34.228100 3.545260
vt -34.416401 3.545260
vt -34.416401 -0.069249
vt 6.741110 -0.069249
vt 6.741110 3.545260
vt -0.081765 3.545260
vt -0.081765 -0.069249
vt -0.712106 0.021164
vt -0.712106 3.369310
vt -7.530020 3.369310
vt -7.530020 0.021164
vt -28.688200 0.021164
vt -28.688200 3.369310
vt -29.007999 3.369310
vt -29.007999 0.021164
vt 7.530020 0.021164
vt 7.530020 3.369310
vt 0.712105 3.369310
vt 0.712105 0.021164
vt 29.007999 0.021164
vt 29.007999 3.369310
vt 28.688101 3.369310
vt 28.688101 0.021164
vt -0.184987 0.024099
vt -0.184987 3.617170
vt -7.027590 3.617170
vt -7.027590 0.024099
vt -39.768799 0.024099
vt -39.768799 3.617170
vt -39.917099 3.617170
vt -39.917099 0.024099
vt 7.028230 0.024099
vt 7.028230 3.617170
vt 0.185622 3.617170
vt 0.185622 0.024099
vt 39.916801 0.024099
vt 39.916801 3.617170
vt 39.768600 3.617170
vt 39.768600 0.024099
vt -0.184987 0.024099
vt -0.184987 3.617170
vt -7.027590 3.617170
vt -7.027590 0.024099
vt -39.768799 0.024099
vt -39.768799 3.617170
vt -39.917099 3.617170
vt -39.917099 0.024099
vt 7.028230 0.024099
vt 7.028230 3.617170
vt 0.185622 3.617170
vt 0.185622 0.024099
vt 39.916801 0.024099
vt 39.916801 3.617170
vt 39.768600 3.617170
vt 39.768600 0.024099
vt -32.173302 3.305080
vt -28.825199 3.244040
vt -28.825199 3.563880
vt -32.173302 3.624920
vt 32.173302 3.624860
vt 28.825199 3.563820
vt 28.825199 3.243980
vt 32.173302 3.305020
vn -0.0197 -0.0066 -0.9998
vn 0.0102 -0.6913 0.7225
vn 0.0104 -0.9999 0.0109
vn 0.0103 -0.6972 0.7168
vn 0.0214 0.9998 -0.0039
vn 0.0040 0.0272 0.9996
vn -1.0000 0.0000 -0.0023
vn -0.0024 -0.0000 1.0000
vn 1.0000 -0.0000 0.0023
vn 0.0023 0.0000 -1.0000
vn 0.0214 -0.0000 0.9998
vn 0.9998 -0.0000 -0.0214
vn -0.0214 0.0000 -0.9998
vn -0.9998 0.0000 0.0214
vn 0.0052 -0.0000 1.0000
vn 1.0000 -0.0000 -0.0052
vn -0.0052 0.0000 -1.0000
vn -1.0000 0.0000 0.0052
vn 0.9996 0.0280 -0.0079
vn -1.0000 0.0064 0.0049
usemtl Resin_Turquoise
s 1
f 1/1/1 2/2/1 3/3/1 4/4/1
f 5/5/2 3/6/3 2/7/3 6/8/4
f 7/9/5 1/10/5 4/11/5 8/12/5
f 6/13/4 7/14/6 8/15/6 5/16/2
f 9/17/7 10/18/7 11/19/7 12/20/7
f 13/21/8 14/22/8 10/23/8 9/24/8
f 15/25/9 16/26/9 14/27/9 13/28/9
f 12/29/10 11/30/10 16/31/10 15/32/10
f 17/33/11 18/34/11 19/35/11 20/36/11
f 21/37/12 2/38/12 18/39/12 17/40/12
f 22/41/13 3/42/13 2/43/13 21/44/13
f 20/45/14 19/46/14 3/47/14 22/48/14
f 23/49/15 24/50/15 25/51/15 26/52/15
f 27/53/16 28/54/16 24/55/16 23/56/16
f 29/57/17 30/58/17 28/59/17 27/60/17
f 26/61/18 25/62/18 30/63/18 29/64/18
f 31/65/15 32/66/15 33/67/15 34/68/15
f 35/69/16 36/70/16 32/71/16 31/72/16
f 37/73/17 38/74/17 36/75/17 35/76/17
f 34/77/18 33/78/18 38/79/18 37/80/18
usemtl Wax_01
f 6/81/19 2/82/19 1/83/19 7/84/19
f 8/85/20 4/86/20 3/87/20 5/88/20
