# Blender v2.79 (sub 0) OBJ File: ''
# www.blender.org
mtllib untitled.mtl
o Terrain.003_Terrain.004
v -141.015594 -0.000069 421.875000
v -141.016663 0.029327 443.533844
v -141.013184 3.325644 460.949463
v -147.663574 2.545223 460.811615
v -142.500824 3.172106 460.936523
v -142.481903 5.124129 467.906006
v -142.478409 9.184468 476.574615
v -142.503784 9.989320 483.801514
v -142.500000 9.998088 500.000000
v -177.492096 9.996019 491.903076
v -146.166199 8.218143 476.614227
v -158.098373 -0.009389 445.145630
v -150.914017 4.626729 469.012634
v -151.410645 8.068029 476.977783
v -154.852509 9.981151 484.047821
v -179.609406 9.998088 500.000000
v -156.161911 2.717514 460.419189
v -179.457535 -0.000069 421.875000
v -157.834274 5.397687 468.408264
v -158.791718 9.849763 476.603638
v -163.549423 1.199499 453.013367
v -164.936874 3.007305 459.577057
v -166.762436 6.135008 468.892578
v -169.799149 9.920654 476.615265
v -170.772827 0.026473 445.996857
v -171.847427 9.959249 483.665436
v -174.583252 0.272503 453.345520
v -172.895248 4.990355 468.843201
v -179.447281 -0.000070 430.050018
v -175.292816 7.443812 477.342346
v -176.870331 9.863667 484.590881
v -177.137375 3.266259 468.202606
v -179.608963 0.028110 453.291534
v -179.609406 -0.000070 429.687500
v -179.596176 2.392810 468.766907
v -179.609406 4.321476 476.562500
v -179.605835 9.796958 491.565918
v -0.002894 1.061131 421.885101
v -0.000852 3.297557 435.808960
v 0.000000 6.409009 445.312500
v -2.077539 7.859722 446.091827
v -0.021492 9.937985 453.187012
v 0.000000 9.998094 460.937500
v -5.446090 2.966919 429.591583
v -4.759916 5.078731 437.401245
v -8.618780 1.461785 421.881653
v -6.836203 8.731637 444.976959
v -11.468944 9.985645 452.879517
v -15.299119 4.126048 437.121216
v -17.328732 7.602729 445.848328
v -49.700100 9.990539 460.937622
v -21.536705 0.286396 421.872040
v -26.685677 3.913935 437.244263
v -30.448990 9.988565 453.026550
v -31.239235 0.033979 421.862946
v -34.145016 6.550571 445.775665
v -39.687016 3.097992 436.813507
v -45.370487 -0.011171 421.876648
v -47.437027 0.701778 429.466278
v -45.408730 9.983589 453.184662
v -45.188187 5.397047 444.643066
v -50.140053 9.216189 453.178802
v -55.401516 4.508463 445.360382
v -54.396328 -0.010340 421.875183
v -58.537468 0.057299 429.671356
v -56.245148 7.897386 453.680267
v -56.515720 10.009352 460.933441
v -64.212418 4.104289 446.518066
v -68.125603 0.116954 429.571625
v -68.972450 9.985036 460.942566
v -83.124817 -0.010793 421.875092
v -77.327583 4.058123 445.206299
v -83.124878 0.006224 429.686188
v -86.092682 9.914410 460.971680
v -84.610329 3.713759 445.307373
v -86.074219 3.398583 445.410187
v -84.608902 0.007857 429.685486
v -12.409164 9.987925 1000.000000
v 0.000000 9.998075 585.148254
v -180.286530 9.998074 585.937500
v -190.000000 9.998006 1000.000000
v 0.000000 0.000000 0.000000
v -174.373810 0.000000 0.000000
v 0.000000 1.080319 421.875000
v -179.457535 -0.000069 421.875000
v 0.000000 9.998094 460.937500
v -92.031250 9.814977 460.937500
v -92.031250 9.998074 585.937500
v -142.500000 9.998088 500.000000
v -142.500000 9.998074 585.937500
v -179.609406 9.998088 500.000000
v -83.125000 -0.000069 421.875000
v -83.125000 -0.000070 429.687500
v -93.562836 0.008783 421.874969
v -84.609398 0.005240 429.687439
v -84.609467 3.702282 445.311707
v -86.087433 3.602503 445.326202
v -86.093285 6.461209 453.361084
v -86.099510 10.046446 460.912994
v -94.114372 0.162311 430.579773
v -93.093468 5.492584 452.928131
v -92.288002 2.990815 444.968079
v -92.031090 9.820363 460.966553
v -92.031250 9.993976 585.937500
v -93.772194 9.144589 461.494934
v -93.593208 9.938668 469.795654
v -95.164055 9.980330 492.712128
v -101.025078 9.999784 566.173340
v -96.167358 0.000856 433.327698
v -96.005402 0.729900 444.953400
v -96.514107 1.449630 454.250275
v -95.033295 9.209109 470.862793
v -96.590073 7.858395 479.321686
v -97.188477 9.385576 498.096924
v -97.310951 9.973562 519.200012
v -97.904625 0.085431 448.947784
v -98.536194 0.730036 462.137665
v -98.155983 3.080711 471.513611
v -98.191002 9.075164 507.278900
v -99.494652 3.179998 483.222992
v -99.581284 6.460457 498.547791
v -100.696617 9.014987 521.959229
v -100.058395 10.118593 537.034790
v -103.017525 0.364044 454.849426
v -102.942802 2.182783 475.885529
v -100.887970 3.792456 487.869019
v -100.948082 7.078485 508.309937
v -102.150772 10.275007 545.544861
v -105.041222 -0.006299 461.295319
v -105.399185 -0.000200 468.792572
v -141.015594 -0.000069 421.875000
v -123.085327 0.012413 445.052490
v -115.630951 8.989800 521.545410
v -121.227859 10.027281 539.260803
v -120.218445 0.382887 453.125031
v -120.792847 0.002914 460.599640
v -125.391731 -0.013549 468.591309
v -138.222916 10.258756 546.638855
v -140.964325 9.989524 566.182678
v -126.053673 2.550636 476.482300
v -135.045731 3.470169 483.063721
v -136.746719 6.751206 503.443146
v -127.439339 0.357543 453.687866
v -137.187744 8.399721 515.111511
v -133.484619 0.045037 439.098785
v -127.908623 0.816192 462.895447
v -138.204315 9.261610 524.179382
v -142.500046 9.976314 585.937500
v -133.510071 0.657950 460.501434
v -135.950195 4.951532 492.292847
v -133.997238 2.412836 473.995819
v -135.221390 1.409534 450.050446
v -137.220535 2.657720 456.203583
v -136.723907 0.650520 444.897522
v -137.603363 5.139429 466.757690
v -136.559341 5.495071 478.992401
v -142.500061 9.989176 538.476746
v -141.013977 0.130172 444.563232
v -138.127319 8.262056 477.241730
v -139.562393 6.629261 469.731689
v -139.695648 9.910855 476.693146
v -141.015594 3.387583 460.937500
v -141.438599 10.083716 491.270996
v -142.495331 10.047082 512.404846
v -142.500000 3.167843 460.937500
v -142.500000 5.584982 468.750000
v -142.500107 9.948053 478.067291
v -179.533081 -0.000070 429.688202
v -178.125000 -0.000071 437.500000
vt 0.444088 0.742023
vt 0.460854 0.777130
vt 0.460937 0.742188
vt 0.460938 0.750001
vt 0.484375 0.750304
vt 0.492188 0.934169
vt 0.500000 0.750000
vt 0.468750 0.750166
vt 0.476562 0.769308
vt 0.476562 0.750021
vt 0.445311 0.832258
vt 0.468750 0.794304
vt 0.476562 0.796881
vt 0.484375 0.814772
vt 0.500000 0.945312
vt 0.460595 0.823681
vt 0.421875 0.742188
vt 0.421875 0.937500
vt 0.468750 0.830783
vt 0.476562 0.835728
vt 0.453125 0.860790
vt 0.460938 0.868240
vt 0.468750 0.877606
vt 0.476563 0.893456
vt 0.445312 0.898946
vt 0.484375 0.904221
vt 0.453479 0.921621
vt 0.468637 0.909809
vt 0.476563 0.920759
vt 0.484375 0.930382
vt 0.467964 0.934197
vt 0.430041 0.937500
vt 0.453115 0.945301
vt 0.429688 0.945312
vt 0.468766 0.945312
vt 0.476562 0.945312
vt 0.491573 0.945312
vt 0.435186 0.000195
vt 0.445312 0.011606
vt 0.445312 0.000000
vt 0.453125 0.000113
vt 0.421875 0.000004
vt 0.429688 0.028949
vt 0.437500 0.025121
vt 0.421875 0.045338
vt 0.445312 0.036003
vt 0.453125 0.060358
vt 0.460938 0.000000
vt 0.436883 0.084880
vt 0.445312 0.091011
vt 0.460938 0.261579
vt 0.421874 0.113054
vt 0.437437 0.143006
vt 0.453125 0.160258
vt 0.421942 0.165496
vt 0.445312 0.179591
vt 0.436353 0.214945
vt 0.421875 0.238792
vt 0.429695 0.249980
vt 0.453125 0.238985
vt 0.444801 0.239331
vt 0.453125 0.263828
vt 0.445312 0.291598
vt 0.421875 0.286297
vt 0.429628 0.305111
vt 0.453125 0.296060
vt 0.460938 0.297451
vt 0.446215 0.334587
vt 0.430335 0.369645
vt 0.460918 0.361654
vt 0.421875 0.437499
vt 0.445350 0.414711
vt 0.429688 0.437499
vt 0.460938 0.453117
vt 0.445312 0.445312
vt 0.445318 0.453125
vt 0.429687 0.445313
vt 0.996286 0.484641
vt 0.593751 0.997032
vt 0.852290 1.001376
vt 1.000000 1.000000
vt 0.000000 0.000000
vt 0.000000 0.007812
vt 0.007812 0.000000
vt 0.007812 0.007812
vt 0.570312 0.000000
vt 0.570312 0.007812
vt 0.578125 0.000000
vt 0.578125 0.007812
vt 0.578125 0.750000
vt 0.578125 0.757812
vt 0.585938 0.750000
vt 0.585938 0.757812
vt 0.421875 0.437500
vt 0.421875 0.492436
vt 0.429688 0.437500
vt 0.429688 0.445313
vt 0.445313 0.453125
vt 0.445312 0.445312
vt 0.430911 0.489287
vt 0.453125 0.489766
vt 0.453125 0.453071
vt 0.460938 0.453157
vt 0.444761 0.486174
vt 0.460948 0.484377
vt 0.460938 0.493056
vt 0.469797 0.492188
vt 0.585938 0.484375
vt 0.492712 0.500000
vt 0.519358 0.510185
vt 0.565956 0.537907
vt 0.432464 0.505705
vt 0.445312 0.505555
vt 0.454035 0.506611
vt 0.470204 0.500226
vt 0.479312 0.507812
vt 0.498084 0.511833
vt 0.450245 0.523439
vt 0.462074 0.519817
vt 0.471475 0.515625
vt 0.507812 0.516815
vt 0.483171 0.523438
vt 0.498517 0.523438
vt 0.521786 0.534171
vt 0.536707 0.527702
vt 0.454881 0.545525
vt 0.475883 0.546597
vt 0.487704 0.531568
vt 0.507526 0.532072
vt 0.545366 0.535984
vt 0.460938 0.552851
vt 0.564655 0.734389
vt 0.468750 0.554732
vt 0.421875 0.742188
vt 0.444437 0.643525
vt 0.521356 0.617111
vt 0.539001 0.638831
vt 0.453125 0.632729
vt 0.460420 0.633176
vt 0.468660 0.660809
vt 0.546875 0.727464
vt 0.476562 0.663451
vt 0.482735 0.708061
vt 0.503981 0.721193
vt 0.453654 0.669099
vt 0.515160 0.720032
vt 0.439667 0.706951
vt 0.462851 0.671832
vt 0.525036 0.720954
vt 0.585938 0.749999
vt 0.492381 0.715000
vt 0.460511 0.703101
vt 0.474007 0.705618
vt 0.450057 0.710938
vt 0.455721 0.720013
vt 0.445312 0.720002
vt 0.465909 0.726104
vt 0.478993 0.718750
vt 0.538310 0.740080
vt 0.444293 0.742319
vt 0.477239 0.726562
vt 0.468750 0.734137
vt 0.476758 0.736282
vt 0.491255 0.741793
vt 0.460938 0.742188
vt 0.512622 0.739838
vt 0.460938 0.750000
vt 0.468750 0.750000
vt 0.478116 0.750000
vt 0.578125 0.750000
vn -0.1108 0.9765 -0.1848
vn -0.0601 0.6468 -0.7603
vn 0.0001 1.0000 -0.0005
vn -0.1097 0.9572 -0.2678
vn -0.2351 0.8802 -0.4122
vn -0.2531 0.9614 -0.1080
vn -0.0164 0.9885 -0.1503
vn -0.0930 0.9556 -0.2794
vn -0.1032 0.9227 -0.3715
vn -0.0539 0.9154 -0.3989
vn -0.0430 0.9749 -0.2183
vn -0.0059 0.9645 -0.2639
vn -0.0007 1.0000 -0.0040
vn 0.0000 1.0000 -0.0003
vn 0.0305 0.9716 -0.2345
vn 0.0282 0.9834 -0.1792
vn 0.0000 1.0000 -0.0014
vn 0.1310 0.9478 -0.2906
vn 0.1354 0.9126 -0.3858
vn 0.2315 0.8659 -0.4434
vn 0.2391 0.9603 -0.1435
vn -0.0021 1.0000 0.0023
vn -0.0299 0.9846 -0.1720
vn 0.0563 0.9656 -0.2540
vn 0.0607 0.9501 -0.3060
vn 0.0618 0.9498 -0.3068
vn 0.0470 0.8800 -0.4726
vn 0.0053 0.8987 -0.4385
vn 0.0064 0.9998 -0.0210
vn 0.0027 1.0000 -0.0021
vn -0.0078 0.9876 -0.1571
vn -0.0012 1.0000 -0.0058
vn -0.0012 1.0000 -0.0053
vn -0.0858 0.9933 -0.0777
vn -0.0887 0.9553 -0.2819
vn -0.0893 0.9555 -0.2812
vn -0.1696 0.9237 -0.3434
vn -0.1568 0.8610 -0.4837
vn -0.4227 0.8320 -0.3594
vn -0.4216 0.8978 -0.1274
vn -0.0789 0.9403 -0.3311
vn -0.0227 0.9995 -0.0200
vn -0.3340 0.9113 -0.2410
vn -0.3087 0.8871 -0.3432
vn -0.0031 1.0000 0.0000
vn -0.0479 0.9972 -0.0582
vn -0.0453 0.9777 -0.2048
vn 0.0027 1.0000 -0.0012
vn -0.0008 1.0000 -0.0012
vn -0.3599 0.9223 -0.1406
vn -0.3815 0.8674 -0.3195
vn -0.5499 0.8106 -0.2015
vn -0.4996 0.7832 -0.3702
vn -0.6676 0.6995 -0.2551
vn -0.0897 0.9956 -0.0256
vn -0.0900 0.9957 -0.0238
vn 0.4798 0.8338 -0.2730
vn 0.4361 0.8217 -0.3670
vn 0.1203 0.9802 -0.1575
vn 0.2557 0.9274 -0.2732
vn 0.2198 0.9074 -0.3582
vn 0.0455 0.9768 -0.2094
vn 0.2497 0.8972 -0.3642
vn 0.2455 0.9088 -0.3374
vn 0.0082 0.9883 -0.1520
vn 0.0044 1.0000 -0.0078
vn -0.0804 0.9640 -0.2536
vn -0.0686 0.8911 -0.4485
vn -0.0236 0.9830 -0.1822
vn -0.1306 0.9102 -0.3930
vn -0.1227 0.9665 -0.2253
vn -0.0002 1.0000 -0.0013
vn -0.0885 0.9739 -0.2090
vn -0.0206 0.9715 -0.2362
vn -0.0213 0.9271 -0.3743
vn -0.0023 0.9477 -0.3192
vn 0.0002 1.0000 0.0001
vn -0.0307 0.9303 -0.3654
vn -0.0250 0.9711 -0.2375
vn -0.1096 0.9186 -0.3797
vn -0.0534 0.9719 -0.2294
vn -0.0481 0.9417 -0.3331
vn -0.0033 0.9793 -0.2026
vn -0.1707 0.9756 -0.1381
vn -0.0048 0.9045 -0.4264
vn -0.0003 1.0000 -0.0011
vn -0.0655 0.9441 -0.3232
vn -0.0433 0.8797 -0.4735
vn -0.0177 0.9559 -0.2931
vn -0.1406 0.8707 -0.4712
vn -0.1594 0.9832 -0.0891
vn -0.1027 0.9545 -0.2801
vn -0.1089 0.8823 -0.4579
vn 0.0001 0.9956 -0.0935
vn -0.0608 0.9634 -0.2612
vn -0.2250 0.8942 -0.3870
vn -0.2170 0.9725 -0.0847
vn 0.0028 0.9602 -0.2795
vn -0.0586 0.9975 -0.0398
vn -0.0780 0.9631 -0.2576
vn -0.0926 0.9188 -0.3837
vn -0.1949 0.9397 -0.2809
vn 0.0085 0.9729 -0.2309
vn -0.0021 0.9258 -0.3781
vn -0.0000 1.0000 -0.0087
vn 0.0065 0.9995 -0.0293
vn 0.0335 0.9293 -0.3678
vn 0.0199 0.9722 -0.2333
vn -0.0074 1.0000 -0.0022
vn -0.0091 0.9684 -0.2494
vn -0.0045 0.9366 -0.3504
vn -0.0490 0.9271 -0.3716
vn -0.2202 0.8997 -0.3770
vn 0.0012 0.9675 -0.2530
vn -0.0492 0.9718 -0.2305
vn 0.0000 1.0000 0.0000
vn 0.0001 1.0000 0.0000
vn 0.0000 1.0000 -0.0026
vn -0.0060 1.0000 -0.0001
vn -0.0020 1.0000 0.0000
vn -0.0000 1.0000 -0.0015
vn 0.0008 1.0000 0.0000
vn 0.0036 1.0000 -0.0036
vn -0.0678 0.9709 -0.2297
vn 0.0150 0.9997 -0.0167
vn -0.0050 0.9744 -0.2246
vn -0.1090 0.9365 -0.3333
vn -0.0980 0.8990 -0.4269
vn -0.0861 0.9796 -0.1816
vn -0.0379 0.8819 -0.4698
vn -0.0760 0.9490 -0.3060
vn -0.4329 0.8164 -0.3823
vn -0.3816 0.9209 -0.0799
vn 0.0677 0.9977 -0.0014
vn 0.0164 0.9999 -0.0007
vn -0.0035 1.0000 -0.0000
vn 0.0016 1.0000 -0.0004
vn -0.1110 0.9935 -0.0246
vn -0.5167 0.8501 -0.1015
vn -0.4939 0.8140 -0.3058
vn -0.7747 0.6258 -0.0908
vn -0.7745 0.5575 -0.2990
vn -0.4929 0.8671 -0.0723
vn -0.4716 0.8812 -0.0339
vn -0.1573 0.9857 -0.0596
vn -0.8925 0.4339 -0.1231
vn -0.7381 0.6741 -0.0282
vn -0.4851 0.8702 -0.0862
vn -0.3499 0.9364 -0.0281
vn -0.4157 0.9081 -0.0512
vn -0.4913 0.8659 -0.0939
vn -0.5565 0.8281 -0.0671
vn -0.8383 0.5188 -0.1676
vn -0.8917 0.4463 -0.0757
vn -0.8911 0.4442 -0.0931
vn -0.9142 0.4005 -0.0617
vn -0.5121 0.8585 -0.0269
vn -0.8383 0.5360 -0.1004
vn -0.8308 0.5475 -0.0996
vn -0.7770 0.6146 -0.1360
vn -0.7772 0.6260 -0.0637
vn -0.3087 0.9499 -0.0488
vn -0.3140 0.9478 -0.0561
vn 0.1005 0.9949 0.0074
vn -0.0020 0.9988 -0.0489
vn -0.0380 0.9924 -0.1170
vn -0.2636 0.9430 -0.2033
vn -0.5744 0.8079 -0.1316
vn -0.6138 0.7778 -0.1352
vn -0.6080 0.7876 -0.1005
vn 0.1050 0.9944 0.0075
vn 0.0590 0.9945 -0.0862
vn -0.0053 0.9912 -0.1322
vn -0.1865 0.9804 -0.0639
vn -0.4116 0.9081 -0.0771
vn -0.0003 1.0000 0.0004
vn -0.6142 0.7885 -0.0300
vn -0.0002 1.0000 0.0006
vn 0.0001 1.0000 -0.0007
vn -0.0020 1.0000 -0.0056
vn -0.0002 0.9986 -0.0534
vn 0.0022 0.9901 -0.1405
vn 0.0057 0.9984 -0.0567
vn 0.0054 0.9991 -0.0425
vn -0.0045 0.9984 0.0559
vn 0.0044 0.9989 -0.0474
vn -0.0017 0.9987 0.0506
vn 0.0006 1.0000 -0.0008
vn -0.0007 1.0000 0.0017
vn 0.0023 0.9555 -0.2949
vn -0.0015 0.9994 -0.0348
vn -0.0000 0.9999 0.0133
vn -0.2184 0.9753 0.0328
vn 0.0072 0.9512 -0.3085
vn 0.0123 0.9907 -0.1352
vn 0.0085 0.9919 -0.1270
vn -0.0020 1.0000 0.0009
vn 0.0125 0.9873 -0.1587
vn 0.0090 0.9911 -0.1331
vn -0.0003 0.9999 0.0137
vn 0.1006 0.9949 0.0110
vn 0.0145 0.9901 -0.1393
vn 0.0202 0.9994 -0.0298
vn 0.3686 0.9292 -0.0275
vn 0.6557 0.7325 -0.1830
vn 0.0080 0.9918 -0.1277
vn 0.0010 0.9955 -0.0945
vn 0.0054 0.9984 -0.0568
vn -0.0003 1.0000 0.0006
vn 0.0608 0.9971 -0.0466
vn 0.0128 0.9875 -0.1572
vn 0.0126 0.9873 -0.1584
vn -0.0160 0.9995 -0.0286
vn 0.0062 1.0000 -0.0053
vn 0.0267 0.9914 -0.1280
vn 0.0624 0.9921 -0.1085
vn 0.5204 0.8536 -0.0238
vn 0.4901 0.8715 -0.0176
vn 0.5498 0.8306 -0.0882
vn -0.0499 0.9901 -0.1313
vn 0.0885 0.9814 -0.1703
vn 0.7471 0.6526 -0.1264
vn 0.6263 0.7794 -0.0185
vn 0.8749 0.4761 -0.0885
vn 0.8137 0.5811 -0.0135
vn 0.0001 0.9987 -0.0508
vn -0.0006 0.9995 -0.0327
vn 0.0071 1.0000 -0.0057
vn -0.1064 0.9811 -0.1619
vn 0.8897 0.4479 -0.0889
vn 0.8753 0.4831 -0.0203
vn -0.1048 0.9784 -0.1783
vn 0.0484 0.9727 -0.2270
vn 0.3058 0.9166 -0.2577
vn 0.7407 0.6131 -0.2748
vn 0.7153 0.6970 0.0498
vn 0.8381 0.5448 -0.0281
vn 0.6982 0.7120 -0.0742
vn -0.1683 0.9668 -0.1923
vn 0.1477 0.9198 -0.3635
vn 0.4917 0.8694 0.0485
vn 0.2889 0.9572 0.0161
vn 0.3210 0.9456 -0.0539
vn 0.1742 0.9847 0.0022
vn -0.0703 0.9975 0.0039
vn -0.1386 0.9364 -0.3223
vn -0.2341 0.9288 -0.2874
vn -0.1749 0.8893 -0.4226
vn -0.1921 0.8888 -0.4162
vn 0.0079 0.9999 -0.0109
vn -0.0917 0.9958 -0.0029
vn -0.0121 -0.9999 0.0007
vn -0.0120 0.9999 -0.0003
usemtl None
s off
f 2/1/1 4/2/1 3/3/1
f 4/2/2 5/4/2 3/3/2
f 8/5/3 10/6/3 9/7/3
f 5/4/4 4/2/4 6/8/4
f 6/8/5 11/9/5 7/10/5
f 7/10/6 11/9/6 8/5/6
f 2/1/7 12/11/7 4/2/7
f 4/2/8 13/12/8 6/8/8
f 6/8/9 13/12/9 11/9/9
f 13/12/10 14/13/10 11/9/10
f 11/9/11 14/13/11 8/5/11
f 14/13/12 15/14/12 8/5/12
f 8/5/13 15/14/13 10/6/13
f 10/6/14 16/15/14 9/7/14
f 4/2/15 17/16/15 13/12/15
f 4/2/16 12/11/16 17/16/16
f 1/17/17 18/18/17 2/1/17
f 17/16/18 19/19/18 13/12/18
f 13/12/19 19/19/19 14/13/19
f 19/19/20 20/20/20 14/13/20
f 14/13/21 20/20/21 15/14/21
f 2/1/22 18/18/22 12/11/22
f 12/11/23 21/21/23 17/16/23
f 21/21/24 22/22/24 17/16/24
f 17/16/25 22/22/25 19/19/25
f 22/22/26 23/23/26 19/19/26
f 19/19/27 23/23/27 20/20/27
f 23/23/28 24/24/28 20/20/28
f 20/20/29 24/24/29 15/14/29
f 18/18/30 25/25/30 12/11/30
f 12/11/31 25/25/31 21/21/31
f 24/24/32 26/26/32 15/14/32
f 15/14/33 26/26/33 10/6/33
f 25/25/34 27/27/34 21/21/34
f 21/21/35 27/27/35 22/22/35
f 27/27/36 28/28/36 22/22/36
f 22/22/37 28/28/37 23/23/37
f 23/23/38 28/28/38 24/24/38
f 28/28/39 30/29/39 24/24/39
f 24/24/40 30/29/40 26/26/40
f 30/29/41 31/30/41 26/26/41
f 26/26/42 31/30/42 10/6/42
f 27/27/43 32/31/43 28/28/43
f 28/28/44 32/31/44 30/29/44
f 18/18/45 29/32/45 25/25/45
f 25/25/46 33/33/46 27/27/46
f 27/27/47 33/33/47 32/31/47
f 34/34/48 33/33/48 29/32/48
f 29/32/49 33/33/49 25/25/49
f 33/33/50 35/35/50 32/31/50
f 32/31/51 35/35/51 30/29/51
f 35/35/52 36/36/52 30/29/52
f 30/29/53 36/36/53 31/30/53
f 36/36/54 37/37/54 31/30/54
f 31/30/55 37/37/55 10/6/55
f 10/6/56 37/37/56 16/15/56
f 39/38/57 41/39/57 40/40/57
f 40/40/58 41/39/58 42/41/58
f 38/42/59 44/43/59 39/38/59
f 44/43/60 45/44/60 39/38/60
f 39/38/61 45/44/61 41/39/61
f 38/42/62 46/45/62 44/43/62
f 45/44/63 47/46/63 41/39/63
f 41/39/64 47/46/64 42/41/64
f 47/46/65 48/47/65 42/41/65
f 42/41/66 48/47/66 43/48/66
f 44/43/67 49/49/67 45/44/67
f 45/44/68 49/49/68 47/46/68
f 46/45/69 49/49/69 44/43/69
f 49/49/70 50/50/70 47/46/70
f 47/46/71 50/50/71 48/47/71
f 48/47/72 51/51/72 43/48/72
f 46/45/73 52/52/73 49/49/73
f 52/52/74 53/53/74 49/49/74
f 49/49/75 53/53/75 50/50/75
f 50/50/76 54/54/76 48/47/76
f 48/47/77 54/54/77 51/51/77
f 50/50/78 53/53/78 54/54/78
f 52/52/79 55/55/79 53/53/79
f 53/53/80 56/56/80 54/54/80
f 55/55/81 57/57/81 53/53/81
f 53/53/82 57/57/82 56/56/82
f 55/55/83 58/58/83 57/57/83
f 58/58/84 59/59/84 57/57/84
f 56/56/85 60/60/85 54/54/85
f 54/54/86 60/60/86 51/51/86
f 57/57/87 61/61/87 56/56/87
f 56/56/88 61/61/88 60/60/88
f 59/59/89 61/61/89 57/57/89
f 61/61/90 62/62/90 60/60/90
f 60/60/91 62/62/91 51/51/91
f 59/59/92 63/63/92 61/61/92
f 61/61/93 63/63/93 62/62/93
f 58/58/94 64/64/94 59/59/94
f 59/59/95 65/65/95 63/63/95
f 63/63/96 66/66/96 62/62/96
f 62/62/97 66/66/97 51/51/97
f 66/66/98 67/67/98 51/51/98
f 64/64/99 65/65/99 59/59/99
f 65/65/100 68/68/100 63/63/100
f 63/63/101 68/68/101 66/66/101
f 66/66/102 68/68/102 67/67/102
f 65/65/103 69/69/103 68/68/103
f 68/68/104 70/70/104 67/67/104
f 64/64/105 71/71/105 65/65/105
f 71/71/106 69/69/106 65/65/106
f 68/68/107 72/72/107 70/70/107
f 69/69/108 72/72/108 68/68/108
f 71/71/109 73/73/109 69/69/109
f 69/69/110 73/73/110 72/72/110
f 72/72/111 74/74/111 70/70/111
f 72/72/112 75/75/112 74/74/112
f 75/75/113 76/76/113 74/74/113
f 73/73/114 77/77/114 72/72/114
f 72/72/115 77/77/115 75/75/115
f 78/78/116 79/79/116 80/80/116
f 78/78/117 80/80/117 81/81/117
f 82/82/118 83/83/118 84/84/118
f 83/83/119 85/85/119 84/84/119
f 86/86/120 87/87/120 79/88/120
f 87/87/121 88/89/121 79/88/121
f 89/90/116 91/91/116 90/92/116
f 91/91/116 80/93/116 90/92/116
f 92/94/122 94/95/122 93/96/122
f 94/95/123 95/97/123 93/96/123
f 95/97/124 97/98/124 96/99/124
f 94/95/125 100/100/125 95/97/125
f 95/97/126 100/100/126 97/98/126
f 97/98/127 101/101/127 98/102/127
f 98/102/128 101/101/128 99/103/128
f 100/100/129 102/104/129 97/98/129
f 101/101/130 103/105/130 99/103/130
f 97/98/131 102/104/131 101/101/131
f 101/101/132 105/106/132 103/105/132
f 105/106/133 106/107/133 103/105/133
f 103/105/134 106/107/134 104/108/134
f 106/107/135 107/109/135 104/108/135
f 107/109/136 115/110/136 104/108/136
f 115/110/137 108/111/137 104/108/137
f 94/95/138 109/112/138 100/100/138
f 100/100/139 110/113/139 102/104/139
f 102/104/140 110/113/140 101/101/140
f 110/113/141 111/114/141 101/101/141
f 101/101/142 111/114/142 105/106/142
f 105/106/143 112/115/143 106/107/143
f 112/115/144 107/109/144 106/107/144
f 100/100/145 109/112/145 110/113/145
f 105/106/146 111/114/146 112/115/146
f 112/115/147 113/116/147 107/109/147
f 113/116/148 114/117/148 107/109/148
f 114/117/149 115/110/149 107/109/149
f 109/112/150 116/118/150 110/113/150
f 110/113/151 116/118/151 111/114/151
f 116/118/152 117/119/152 111/114/152
f 111/114/153 117/119/153 112/115/153
f 117/119/154 118/120/154 112/115/154
f 112/115/155 118/120/155 113/116/155
f 118/120/156 114/117/156 113/116/156
f 114/117/157 119/121/157 115/110/157
f 117/119/158 120/122/158 118/120/158
f 118/120/159 120/122/159 114/117/159
f 120/122/160 121/123/160 114/117/160
f 114/117/161 121/123/161 119/121/161
f 119/121/162 122/124/162 115/110/162
f 122/124/163 123/125/163 115/110/163
f 115/110/164 123/125/164 108/111/164
f 116/118/165 124/126/165 117/119/165
f 117/119/166 125/127/166 120/122/166
f 120/122/167 126/128/167 121/123/167
f 126/128/168 127/129/168 121/123/168
f 121/123/169 127/129/169 119/121/169
f 119/121/170 127/129/170 122/124/170
f 123/125/171 128/130/171 108/111/171
f 117/119/172 124/126/172 125/127/172
f 120/122/173 125/127/173 126/128/173
f 122/124/174 128/130/174 123/125/174
f 124/126/175 129/131/175 125/127/175
f 108/111/176 139/132/176 104/108/176
f 129/131/177 130/133/177 125/127/177
f 94/95/178 131/134/178 109/112/178
f 131/134/179 132/135/179 109/112/179
f 109/112/180 132/135/180 116/118/180
f 122/124/181 133/136/181 128/130/181
f 127/129/182 133/136/182 122/124/182
f 133/136/183 134/137/183 128/130/183
f 116/118/184 135/138/184 124/126/184
f 124/126/185 135/138/185 129/131/185
f 116/118/186 132/135/186 135/138/186
f 135/138/187 136/139/187 129/131/187
f 129/131/188 136/139/188 130/133/188
f 136/139/189 137/140/189 130/133/189
f 130/133/190 137/140/190 125/127/190
f 134/137/191 138/141/191 128/130/191
f 138/141/192 108/111/192 128/130/192
f 132/135/193 136/139/193 135/138/193
f 137/140/194 140/142/194 125/127/194
f 125/127/195 140/142/195 126/128/195
f 140/142/196 141/143/196 126/128/196
f 132/135/197 137/140/197 136/139/197
f 126/128/198 142/144/198 127/129/198
f 127/129/199 142/144/199 133/136/199
f 138/141/200 139/132/200 108/111/200
f 132/135/201 143/145/201 137/140/201
f 142/144/202 144/146/202 133/136/202
f 132/135/203 145/147/203 143/145/203
f 143/145/204 146/148/204 137/140/204
f 137/140/205 146/148/205 140/142/205
f 146/148/206 141/143/206 140/142/206
f 144/146/207 147/149/207 133/136/207
f 133/136/208 147/149/208 134/137/208
f 139/132/209 148/150/209 104/108/209
f 145/147/210 146/148/210 143/145/210
f 141/143/211 150/151/211 126/128/211
f 126/128/212 150/151/212 142/144/212
f 146/148/213 145/147/213 149/152/213
f 132/135/214 131/134/214 145/147/214
f 149/152/215 151/153/215 146/148/215
f 146/148/216 151/153/216 141/143/216
f 145/147/217 152/154/217 149/152/217
f 152/154/218 153/155/218 149/152/218
f 149/152/219 153/155/219 151/153/219
f 145/147/220 154/156/220 152/154/220
f 154/156/221 153/155/221 152/154/221
f 153/155/222 155/157/222 151/153/222
f 151/153/223 155/157/223 141/143/223
f 155/157/224 156/158/224 141/143/224
f 141/143/225 156/158/225 150/151/225
f 147/149/226 157/159/226 134/137/226
f 134/137/227 157/159/227 138/141/227
f 131/134/228 158/160/228 145/147/228
f 145/147/229 158/160/229 154/156/229
f 155/157/230 159/161/230 156/158/230
f 156/158/231 159/161/231 150/151/231
f 154/156/232 158/160/232 153/155/232
f 153/155/233 158/160/233 155/157/233
f 155/157/234 160/162/234 159/161/234
f 160/162/235 161/163/235 159/161/235
f 159/161/236 161/163/236 150/151/236
f 150/151/237 161/163/237 142/144/237
f 142/144/238 163/164/238 144/146/238
f 158/160/239 162/165/239 155/157/239
f 155/157/240 162/165/240 160/162/240
f 161/163/241 163/164/241 142/144/241
f 163/164/242 164/166/242 144/146/242
f 144/146/243 164/166/243 147/149/243
f 147/149/244 164/166/244 157/159/244
f 138/141/245 157/159/245 139/132/245
f 162/165/246 165/167/246 160/162/246
f 165/167/247 166/168/247 160/162/247
f 160/162/248 166/168/248 161/163/248
f 166/168/249 167/169/249 161/163/249
f 161/163/250 167/169/250 163/164/250
f 163/164/251 167/169/251 164/166/251
f 157/159/252 167/170/252 139/132/252
f 139/132/253 167/170/253 148/150/253
l 168 169
