# Blender v2.79 (sub 0) OBJ File: ''
# www.blender.org
mtllib 5aukstis.mtl
o Mesh2_Component_1_1_Model.001
v 8.128498 -2.682268 -33.144497
v 8.128498 12.730472 -33.144497
v -2.187104 -2.682277 24.075296
v -2.187104 -2.738380 24.075296
v -2.187104 13.032661 24.075300
v 8.264797 13.032661 25.959501
v -2.172915 11.079605 24.138102
v 8.264797 -2.823038 25.959497
v 18.580387 12.612572 -31.260298
v 18.580387 -2.333248 -31.260298
vt 0.258895 0.150071
vt 0.258895 0.990529
vt 0.856507 0.972989
vt 0.856507 0.150071
vt 0.134063 -0.115426
vt 0.105001 -0.730196
vt 0.976342 -0.798278
vt 0.976342 -0.012435
vt 0.128968 -0.012435
vt 0.874024 -0.755895
vt 0.046374 -0.098342
vt 0.046374 -0.760675
vt 0.874024 -0.098342
vt -0.473130 -0.762190
vt -0.464831 -0.662389
vt -0.523242 -0.736780
vt -0.515762 -0.646826
vt -0.872848 1.970680
vt -0.775708 1.546800
vt -0.872848 1.546800
vt -0.775708 1.970680
vn -0.9841 0.0000 -0.1774
vn -0.6641 0.5927 0.4558
vn -0.4630 0.5792 -0.6709
vn -0.1755 0.0126 0.9844
vn -0.1775 -0.0043 0.9841
vn -0.1751 -0.0025 0.9845
vn -0.1213 0.7109 0.6928
vn 0.8169 -0.0000 -0.5767
vn 0.9841 -0.0000 0.1774
vn 0.6741 0.5722 -0.4672
vn 0.1774 0.0000 -0.9841
usemtl foto14
s 1
f 4/1/1 5/2/2 2/3/3
f 1/4/1 4/1/1 2/3/3
usemtl foto6
f 7/5/4 3/6/5 8/7/6
f 8/7/6 6/8/7 7/5/4
f 6/8/7 5/9/2 7/5/4
usemtl foto10
f 10/10/8 6/11/9 8/12/9
f 10/10/8 9/13/10 6/11/9
usemtl foto11
f 6/14/7 9/15/10 5/16/2
f 2/17/3 5/16/2 9/15/10
usemtl foto11_foto11.jpg
f 2/18/3 10/19/8 1/20/11
f 2/18/3 9/21/10 10/19/8
