# Blender v2.79 (sub 0) OBJ File: ''
# www.blender.org
mtllib 9aukstis.mtl
o Mesh2_Component_2_1_Model.003_Mesh2_Component_2_1_Model.007
v 5.970980 19.854088 0.740833
v 11.927881 19.854090 -16.365170
v 5.970980 -5.857853 0.740829
v 5.970980 -10.438202 0.740828
v 11.927881 -10.896419 -16.365175
v 11.927881 -0.410451 -16.365173
v -8.885220 23.519588 -1.177166
v -8.885220 -9.846819 -1.177171
v -5.785318 23.519588 -0.097164
v -5.785318 -9.846819 -0.097169
v -5.785318 19.963589 -0.097165
v -5.785318 -5.448613 -0.097169
v -5.785318 19.963589 -0.097165
v -5.785318 -10.090219 -0.097169
v -11.441118 -10.511743 16.143827
v -11.441118 -0.622336 16.143829
v -11.441118 19.963587 16.143833
v 5.970980 19.854088 0.740833
v 5.970980 23.519588 0.740833
v 5.970980 -10.545366 0.740829
v 4.959780 -10.545367 3.644835
v 4.959780 19.963589 3.644840
v 4.959780 23.519588 3.644840
v 4.959780 -10.568151 3.644835
v 4.959780 -5.857853 3.644835
v 7.361582 -10.568151 4.480834
v 7.361582 19.963589 4.480838
v 4.959780 19.963589 3.644840
v 1.705780 19.963585 20.721836
v 1.705780 -10.883107 20.721830
v -11.441118 -10.583076 16.143827
v -11.441118 -6.921236 16.143827
v -11.441118 19.953329 16.143833
v -7.874119 23.519588 -4.080166
v -8.885220 23.519588 -1.177166
v -8.885220 -9.816263 -1.177171
v -7.718220 -9.812900 -4.026170
v 5.970980 19.854088 0.740833
v -7.718220 19.854088 -4.026165
v 5.970980 23.519588 0.740833
v -1.761320 19.854092 -21.132168
v 7.361582 -5.919414 4.480834
v 7.361582 -9.591504 4.480834
v 3.688581 -10.343758 15.028822
v 5.493082 -10.458247 9.846830
v 5.564680 -10.462787 9.640821
v 7.361582 -10.583075 4.480833
v 7.361582 19.963589 4.480838
v 1.705780 19.963585 20.721836
v 1.705780 -0.622337 20.721832
v 1.797781 -10.223800 20.814924
v 3.616980 -10.339218 15.233824
v -1.761320 -9.448074 -21.132174
v -1.761320 -0.544490 -21.132172
v -3.741320 -9.581210 -15.446169
v -5.575418 -9.700272 -10.179171
v -5.663420 -9.705981 -9.926165
v -7.533819 -9.827402 -4.555177
v -1.836119 -9.457529 -20.917177
v -3.662020 -9.576060 -15.674166
v 4.959780 19.963589 3.644840
v 4.959780 23.519588 3.644840
v -5.785318 23.519588 -0.097164
v -5.785318 19.963589 -0.097165
v -1.761320 19.854092 -21.132168
v 11.927881 -6.602211 -16.365175
v 11.927881 19.850706 -16.365170
v 11.927881 -10.583071 -16.365175
v -1.761320 -9.448074 -21.132174
vt 0.460558 -0.000000
vt 0.555739 -0.000000
vt 0.555739 0.615960
vt 0.460558 0.615960
vt 0.000000 0.028135
vt 0.000000 0.017320
vt 1.000000 0.000000
vt 1.000000 0.234037
vt 1.000000 1.000000
vt 0.000000 1.000000
vt 1.000000 0.000000
vt 1.000000 1.000000
vt 0.000000 1.000000
vt 0.000000 0.391331
vt 0.000000 0.000000
vt 0.337916 0.046024
vt 0.350576 0.045877
vt 0.000000 0.332637
vt 0.016260 0.049766
vt 0.669640 0.042165
vt 1.000000 0.160915
vt 0.682288 0.042018
vt 0.988705 0.038454
vt 1.000000 1.000000
vt 0.000000 1.000000
vt 1.000000 0.041872
vt 0.000000 1.000000
vt 0.000000 0.150559
vt 1.000000 0.150559
vt 1.000000 0.895727
vt 1.000000 1.000000
vt 0.000000 1.000000
vt 0.000000 0.152673
vt 1.000000 0.152673
vt 1.000000 0.154688
vt 1.000000 1.000000
vt 0.000000 0.054775
vt 0.000000 0.015679
vt 1.000000 0.000000
vt 1.000000 0.234292
vt 1.000000 1.000000
vt 0.000000 1.000000
vt -0.000000 0.878955
vt -0.000000 0.000000
vt 1.000000 0.000000
vt 1.000000 0.875226
vt 1.000000 1.000000
vt -0.000000 1.000000
vt 0.854894 0.892515
vt 0.000000 0.892515
vt 0.000000 0.294363
vt 0.828421 0.022159
vt 0.854894 0.000000
vt 0.284151 0.029378
vt 0.272770 0.029529
vt 0.547365 0.025887
vt 0.559997 0.025719
vt 0.010732 0.033004
vt 0.000000 0.000000
vt 0.887535 0.916803
vt 0.887535 0.888536
vt 0.970851 0.888536
vt 0.970851 0.916803
vt 1.000000 0.000000
vt 1.000000 1.000000
vt 0.000000 1.000000
vt 0.000000 0.367627
vt 0.000000 0.000000
vt 0.714917 0.000000
vt 1.000000 0.000000
vt 0.714917 0.663470
vt 1.000000 1.000000
vn 0.3289 0.0000 -0.9444
vn 0.9444 -0.0000 0.3289
vn 0.9463 0.0035 0.3233
vn 0.9443 -0.0002 0.3291
vn 0.9455 0.0021 0.3256
vn 0.9508 0.0121 0.3097
vn 0.9444 -0.0001 0.3287
vn 0.9445 -0.0006 0.3284
vn 0.0000 0.0000 1.0000
vn -0.3290 -0.0000 0.9443
vn 0.3287 0.0000 -0.9444
vn 0.3290 -0.0002 -0.9443
vn 0.3290 0.0002 -0.9443
vn -0.9444 0.0000 -0.3289
vn 0.9444 -0.0000 0.3288
vn -0.9443 -0.0000 -0.3290
vn -0.9443 0.0000 -0.3292
vn -0.9444 0.0001 -0.3287
vn -0.9445 0.0002 -0.3286
vn -0.9445 0.0004 -0.3286
vn -0.9444 0.0001 -0.3288
vn -0.9444 -0.0000 -0.3287
vn -0.9445 0.0000 -0.3286
vn -0.9352 -0.0025 -0.3541
vn -0.3289 -0.0000 0.9444
usemtl daugiabut_3_3_
s 1
f 38/1/1 39/2/1 34/3/1 40/4/1
usemtl daugiabut6_
f 3/5/2 4/6/2 5/7/2 6/8/2 2/9/2 1/10/2
usemtl daugiabut_3_10_
f 69/11/1 65/12/1 67/13/1 66/14/1 68/15/1
usemtl daugiabut5_
f 52/16/3 44/17/4 50/18/5
f 50/18/5 51/19/6 52/16/3
f 44/17/4 45/20/7 50/18/5
f 42/21/2 45/20/7 46/22/8
f 45/20/7 42/21/2 50/18/5
f 46/22/8 47/23/2 42/21/2
f 42/21/2 48/24/2 50/18/5
f 48/24/2 49/25/2 50/18/5
f 43/26/9 42/21/2 47/23/2
usemtl daugiabut_2
f 7/27/10 8/28/10 10/29/10 11/30/10 9/31/10
usemtl daugiabut_2_2_
f 27/32/11 26/33/12 24/34/13 25/35/11 28/36/11
usemtl daugiabut7_
f 12/37/14 14/38/14 15/39/14 16/40/14 17/41/14 13/42/14
usemtl daugiabut_2_1_
f 22/43/15 21/44/15 20/45/15 18/46/15 19/47/15 23/48/15
usemtl daugiabut
f 39/49/14 41/50/14 54/51/14
f 58/52/16 37/53/17 39/49/14
f 55/54/18 54/51/14 60/55/19
f 55/54/18 56/56/20 54/51/14
f 56/56/20 57/57/21 54/51/14
f 54/51/14 59/58/22 60/55/19
f 57/57/21 39/49/14 54/51/14
f 58/52/16 39/49/14 57/57/21
f 54/51/14 53/59/23 59/58/22
f 34/60/24 37/61/24 36/62/24 35/63/24
usemtl daugiabut_3_4_
f 30/64/25 29/65/25 33/66/25 32/67/25 31/68/25
usemtl daugiabut_2_5_
f 64/69/25 61/70/25 63/71/25
f 63/71/25 61/70/25 62/72/25
