# Blender v2.79 (sub 0) OBJ File: ''
# www.blender.org
mtllib ads.mtl
o Cube.000_Cube.002
v 0.500000 5.851031 5.000001
v 0.500000 5.851033 -4.999999
v 0.500000 11.851033 -4.999996
v 0.500000 11.851031 5.000005
v 0.300000 -0.048968 -0.800000
v 0.300000 5.951032 -0.799999
v 0.300000 5.951032 0.800001
v 0.300000 -0.048968 0.800000
v -0.300000 5.951032 0.800001
v -0.300000 -0.048968 0.800000
v -0.300000 5.951032 -0.799999
v -0.300000 -0.048968 -0.800000
v -0.500000 5.851031 5.000001
v -0.500000 5.851033 -5.000001
v -0.500000 11.851033 -4.999998
v -0.500000 11.851031 5.000000
vt 0.000077 0.000077
vt 1.000000 0.000078
vt 1.000000 0.999923
vt 0.000077 0.999922
vt 0.000000 0.000000
vt 0.000000 0.000000
vt 0.000000 0.000000
vt 0.000000 0.000000
vt 0.000000 0.000000
vt 0.000000 0.000000
vt 0.000000 0.000000
vt 0.000000 0.000000
vt 0.000000 0.000000
vt 0.000000 0.000000
vt 0.000000 0.000000
vt 0.000000 0.000000
vt 0.000000 0.000000
vt 0.000000 0.000000
vt 0.000000 0.000000
vt 0.000000 0.000000
vn 1.0000 0.0000 0.0000
vn 0.0000 -0.0000 1.0000
vn -1.0000 0.0000 0.0000
vn 0.0000 0.0000 -1.0000
vn 0.0000 -1.0000 -0.0000
vn -0.0000 1.0000 0.0000
usemtl ad
s 1
f 1/1/1 2/2/1 3/3/1 4/4/1
usemtl body
f 5/5/1 6/6/1 7/7/1 8/8/1
f 8/8/2 7/7/2 9/9/2 10/10/2
f 10/10/3 9/9/3 11/11/3 12/12/3
f 6/6/4 5/5/4 12/12/4 11/11/4
f 2/13/5 1/14/5 13/15/5 14/16/5
f 3/17/6 15/18/6 16/19/6 4/20/6
f 1/14/2 4/20/2 16/19/2 13/15/2
f 3/17/4 2/13/4 14/16/4 15/18/4
f 13/15/3 16/19/3 15/18/3 14/16/3
