# Blender v2.79 (sub 0) OBJ File: ''
# www.blender.org
mtllib sign.mtl
o Mesh1_Post1_Component1_Model
v 0.056411 0.000000 -0.086957
v 0.010704 0.000000 -0.075439
v 0.010704 2.438400 -0.051915
v 0.056411 2.438400 -0.110480
v 0.103091 0.000000 -0.051891
v 0.103092 2.438400 -0.051890
v 0.280897 1.883160 -0.050000
v 0.280896 2.444360 -0.050000
v -0.185178 2.441990 -0.050000
v -0.185178 1.883160 -0.050000
vt -0.937500 0.000000
vt -2.562500 96.000000
vt -2.562500 0.000000
vt -0.121283 0.000000
vt -1.932970 96.000000
vt -1.932970 0.000000
vt 1.076250 0.000000
vt -0.727607 96.000000
vt -0.727607 0.000000
vt -0.937500 96.000000
vt -0.121283 96.000000
vt 1.076250 96.000000
vt -0.000000 0.956405
vt 1.001010 0.039698
vt 1.001010 0.960302
vt -0.000000 0.039698
vn -0.2559 -0.0091 -0.9667
vn -0.7836 0.0058 -0.6212
vn -0.2443 -0.0094 -0.9696
vn -0.2412 -0.0091 0.9704
vn -0.0064 -0.0002 1.0000
vn -0.2470 -0.0093 0.9690
vn 0.6045 -0.0001 -0.7966
vn 0.7797 -0.0059 -0.6261
vn 0.6006 -0.0000 -0.7995
vn -0.7883 0.0059 -0.6152
vn -0.0003 -0.0000 1.0000
vn 0.7821 -0.0060 -0.6231
vn -0.0000 -0.0000 1.0000
usemtl Kotas
s 1
f 2/1/1 4/2/2 1/3/3
f 5/4/4 3/5/5 2/6/6
f 1/7/7 6/8/8 5/9/9
f 2/1/1 3/10/10 4/2/2
f 5/4/4 6/11/11 3/5/5
f 1/7/7 4/12/12 6/8/8
usemtl Zenklas
f 9/13/13 7/14/13 8/15/13
f 7/14/13 9/13/13 10/16/13
