# Blender v2.79 (sub 0) OBJ File: ''
# www.blender.org
mtllib stotele.mtl
o Mesh15_Bus_Stop_3911_Park_Blvd_B1_Model.001
v 1.272038 1.841819 3.817953
v 0.116081 0.183425 3.806371
v 1.272038 0.183425 3.817953
v 0.116081 1.841819 3.806371
vt 17.311899 52.232700
vt 0.000000 0.000000
vt 17.311899 0.000000
vt 0.000000 52.232700
vn -0.0100 -0.0000 0.9999
usemtl Photo_Texture2_4
s 1
f 1/1/1 2/2/1 3/3/1
f 1/1/1 4/4/1 2/2/1
o Mesh15_Bus_Stop_3911_Park_Blvd_B1_Model
v 1.279960 0.264449 3.776779
v 1.280010 1.927928 3.796099
v 1.276660 0.266499 0.096189
v 1.276700 1.927930 0.112589
v 0.126347 1.841820 0.096838
v 1.274730 0.183426 0.096838
v 0.126347 0.183426 0.096838
v 1.274730 1.841820 0.096838
v 1.403512 2.120091 3.914510
v 1.401070 2.120030 0.000000
v 1.109571 2.265121 0.000000
v 1.024453 2.289808 3.914510
v 0.751161 2.323567 0.000000
v 0.649912 2.323566 3.914510
v 0.376629 2.289811 0.000000
v 0.291515 2.265122 3.914510
v -0.002443 2.120093 0.000000
v 0.000000 2.120028 3.914510
v 0.101600 2.031999 3.849234
v 0.134596 2.031999 3.792084
v 0.068604 2.031999 3.792084
v 0.134596 -0.029800 3.792084
v 0.101600 -0.029800 3.849233
v 0.068604 -0.029800 3.792084
v 1.359470 2.032000 1.361271
v 1.392470 2.032000 1.304121
v 1.326480 2.032000 1.304121
v 1.392470 -0.029799 1.304121
v 1.359470 -0.029799 1.361271
v 1.326480 -0.029799 1.304121
v 0.101600 2.032000 0.139700
v 0.134596 2.032000 0.082550
v 0.068604 2.032000 0.082550
v 0.134596 -0.029799 0.082550
v 0.101600 -0.029799 0.139700
v 0.068604 -0.029799 0.082550
v 1.332470 -0.029799 0.082550
v 1.299470 -0.029799 0.139700
v 1.266480 -0.029799 0.082550
v 1.401070 2.031998 3.914510
v 1.401070 2.032000 0.000000
v 0.000000 2.031998 3.914510
v 0.000000 2.032000 0.000000
v 1.330000 -0.028424 2.550830
v 1.406200 -0.028464 2.594830
v 1.330000 -0.029446 2.638810
v 1.393480 2.029400 2.618720
v 1.317280 2.029438 2.574730
v 1.317280 2.028419 2.662700
v 1.299470 2.032000 0.139700
v 1.299472 2.032000 0.090714
v 1.270000 -0.028425 3.751790
v 1.346200 -0.028465 3.795790
v 1.270000 -0.029447 3.839770
v 1.333480 2.029398 3.819680
v 1.257280 2.029438 3.775690
v 1.257280 2.028418 3.863660
vt 21.968500 0.458233
vt 22.259701 52.851299
vt 1.295770 8.373100
vt 1.542960 52.851299
vt 17.311899 52.232700
vt 0.000000 0.000000
vt 17.311899 0.000000
vt 0.000000 52.232700
vt 0.000000 0.000000
vt 1.000000 1.000000
vt 0.000000 1.000000
vt 1.000000 0.000000
vt 0.004340 0.138582
vt 1.086990 0.863555
vt 0.004340 0.863555
vt 1.086990 0.138582
vt 0.991397 0.907057
vt 0.008198 0.110768
vt 0.991397 0.110768
vt -1.000000 17.871201
vt -0.000500 19.128799
vt -1.000500 19.000000
vt 0.008198 0.907057
vt 0.000000 18.000000
vt 18.517099 1.970490
vt 18.543100 0.696563
vt 18.539600 1.970790
vt 18.498301 0.695954
vt 18.520700 0.696258
vt 18.472300 1.969880
vt 18.494699 1.970180
vt -29.258499 -15.008000
vt -29.283199 -15.010300
vt -29.270000 -15.056200
vt -29.306000 -13.679500
vt -28.769199 -15.625700
vt -29.749599 -15.723400
vt -29.736401 -15.769400
vt 4.006060 -14.500300
vt 3.981350 -14.498800
vt 3.993120 -14.546600
vt 18.517099 1.970490
vt 18.543100 0.696563
vt 18.539600 1.970790
vt 18.498301 0.695954
vt 18.520700 0.696258
vt 18.472300 1.969880
vt 18.494699 1.970180
vt 18.517099 1.970490
vt 18.543100 0.696563
vt 18.539600 1.970790
vt 18.498301 0.695954
vt 18.520700 0.696258
vt 18.472300 1.969880
vt 18.494699 1.970180
vt 18.517099 1.970490
vt 18.543100 0.696563
vt 18.539600 1.970790
vt 18.498301 0.695954
vt 18.520700 0.696258
vt -29.258499 -15.008000
vt -29.283199 -15.010300
vt -29.270000 -15.056200
vt -29.306000 -13.679500
vt -28.769199 -15.625700
vt -29.749599 -15.723400
vt -29.736401 -15.769400
vt 4.006060 -14.500300
vt 3.981350 -14.498800
vt 3.993120 -14.546600
vt 18.475901 0.695649
vt -29.281300 -13.677200
vt -28.780701 -15.673900
vt 18.475901 0.695649
vt 18.475901 0.695649
vt 18.483501 1.970030
vt 18.475901 0.695649
vt -29.281300 -13.677200
vt -28.780701 -15.673900
vt -1.299040 2.250000
vt -2.598080 0.000000
vt 0.000000 0.000000
vt 2.598080 0.000000
vt 1.299040 2.250000
vt 0.000000 0.000000
vt -1.299040 2.250000
vt -2.598080 0.000000
vt 0.000000 0.000000
vt 2.598080 0.000000
vt 1.299040 2.250000
vt 0.000000 0.000000
vt -1.299040 2.250000
vt -2.598080 0.000000
vt 0.000000 0.000000
vt 2.598080 0.000000
vt 1.299040 2.250000
vt 0.000000 0.000000
vt 2.598080 0.000000
vt 1.299040 2.250000
vt 0.000000 0.000000
vt 1.283458 3.390820
vt 1.284020 0.971537
vt 1.371379 0.971537
vt 1.395008 3.390820
vt 1.468799 0.971537
vt 1.495941 3.390820
vt 1.569735 0.971537
vt 1.593363 3.390820
vt 1.681281 0.971537
vt 1.680720 3.390820
vn -1.0000 0.0000 0.0009
vn 0.0000 0.0000 -1.0000
vn 0.9996 -0.0273 -0.0006
vn 0.8502 0.5264 -0.0002
vn 0.8473 0.5311 0.0014
vn 1.0000 -0.0000 0.0000
vn -0.9996 -0.0273 0.0006
vn -0.8502 0.5264 0.0002
vn -0.8473 0.5311 -0.0014
vn -1.0000 0.0000 0.0000
vn -0.0000 0.0000 1.0000
vn 0.8660 -0.0000 -0.5000
vn -0.8660 -0.0000 -0.5000
vn 0.0062 -0.9999 -0.0116
vn -0.5000 0.0070 -0.8660
vn 1.0000 0.0062 0.0001
vn -0.5000 -0.0131 0.8659
vn -0.0062 0.9999 0.0116
vn -0.0001 -0.0000 1.0000
vn -0.0000 0.8392 0.5438
vn 0.8654 0.0042 -0.5011
vn 0.0000 0.8448 -0.5351
vn -0.8654 0.0042 -0.5011
vn 0.0000 1.0000 0.0000
vn 0.0000 -1.0000 -0.0000
vn 0.3075 0.9515 -0.0014
vn 0.2524 0.9676 0.0026
vn 0.3075 0.9516 -0.0014
vn 0.0357 0.9994 -0.0024
vn -0.0357 0.9994 0.0024
vn -0.2524 0.9676 -0.0026
vn -0.3075 0.9516 0.0014
usemtl Photo_Texture2_3
s 1
f 5/5/2 6/6/2 7/7/2
f 6/6/2 8/8/2 7/7/2
usemtl Photo_Texture2_1
f 9/9/3 10/10/3 11/11/3
f 9/9/3 12/12/3 10/10/3
usemtl FrontColor.001_NONE
f 44/13/4 14/14/5 13/15/6
f 44/13/4 45/16/7 14/14/5
usemtl FrontColor.001_NONE_Photo_Texture2_4.jpg
f 47/17/8 22/18/9 21/19/10
f 47/17/8 46/20/11 22/18/9
usemtl FrontColor.001_NONE_Photo_Texture2_1_1_.jpg
f 13/21/12 46/22/12 44/23/12
f 45/24/3 21/25/3 14/26/3
f 13/21/12 22/27/12 46/22/12
f 45/24/3 47/28/3 21/25/3
usemtl FrontColor.001_NONE_Photo_Texture2_5.jpg
f 23/29/12 26/30/13 24/31/13
f 23/29/12 28/32/14 27/33/12
f 24/34/13 28/32/14 25/35/14
f 48/36/15 49/37/15 50/38/15
f 48/36/16 51/39/17 49/37/17
f 50/38/18 52/40/16 48/36/16
f 50/38/18 51/41/17 53/42/18
f 51/43/19 52/44/19 53/45/19
f 29/46/20 32/47/13 30/48/13
f 29/46/20 34/49/14 33/50/20
f 30/51/13 34/49/14 31/52/14
f 35/53/12 38/54/13 36/55/13
f 35/53/12 40/56/14 39/57/12
f 36/58/13 40/56/14 37/59/14
f 54/60/21 41/61/22 55/62/23
f 54/60/21 43/63/24 42/64/20
f 56/65/15 57/66/15 58/67/15
f 56/65/16 59/68/17 57/66/17
f 58/67/18 60/69/16 56/65/16
f 58/67/18 59/70/17 61/71/18
f 59/72/19 60/73/19 61/74/19
f 23/29/12 27/33/12 26/30/13
f 23/29/12 25/35/14 28/32/14
f 24/34/13 26/75/13 28/32/14
f 48/36/16 52/76/16 51/39/17
f 50/38/18 53/77/18 52/40/16
f 50/38/18 49/37/17 51/41/17
f 29/46/20 33/50/20 32/47/13
f 29/46/20 31/52/14 34/49/14
f 30/51/13 32/78/13 34/49/14
f 35/53/12 39/57/12 38/54/13
f 35/53/12 37/59/14 40/56/14
f 36/58/13 38/79/13 40/56/14
f 54/60/21 42/64/20 41/61/22
f 54/60/21 55/80/23 43/63/24
f 55/80/23 41/81/22 43/63/24
f 56/65/16 60/82/16 59/68/17
f 58/67/18 61/83/18 60/69/16
f 58/67/18 57/66/17 59/70/17
usemtl FrontColor.001_NONE_NONE
f 23/84/25 24/85/25 25/86/25
f 26/87/26 27/88/26 28/89/26
f 29/90/25 30/91/25 31/92/25
f 32/93/26 33/94/26 34/95/26
f 35/96/25 36/97/25 37/98/25
f 38/99/26 39/100/26 40/101/26
f 41/102/26 42/103/26 43/104/26
usemtl FrontColor.001
f 13/105/6 14/106/5 15/107/27
f 16/108/28 15/107/29 17/109/30
f 18/110/31 17/109/30 19/111/32
f 20/112/33 19/111/32 21/113/10
f 16/108/28 13/105/6 15/107/29
f 18/110/31 16/108/28 17/109/30
f 20/112/33 18/110/31 19/111/32
f 22/114/9 20/112/33 21/113/10
